<svg width="93" height="79" viewBox="0 0 93 79" fill="none" xmlns="http://www.w3.org/2000/svg">
<path d="M12.7052 61.7392C7.99255 54.6062 9.95991 44.9773 17.0929 40.2647L33.7781 29.2409L28.5418 21.3154L11.8566 32.3392C6.32505 35.9938 2.4719 41.6961 1.14473 48.1917C-0.182428 54.6872 1.12512 61.4439 4.77973 66.9755C8.43434 72.507 14.1367 76.3601 20.6322 77.6873C27.1278 79.0144 33.8845 77.7069 39.416 74.0523L56.1013 63.0285L50.865 55.103L34.1797 66.1268C27.0468 70.8395 17.4179 68.8721 12.7052 61.7392ZM32.5635 54.6111L65.934 32.5635L60.4221 24.2209L27.0517 46.2685L32.5635 54.6111ZM53.5697 4.7797L36.8844 15.8035L42.1207 23.729L58.806 12.7052C65.9389 7.99252 75.5678 9.95988 80.2805 17.0928C84.9931 24.2258 83.0258 33.8547 75.8928 38.5673L59.2076 49.5911L64.4439 57.5166L81.1291 46.4928C86.6606 42.8382 90.5138 37.1359 91.8409 30.6403C93.1681 24.1448 91.8606 17.388 88.206 11.8565C84.5513 6.32502 78.849 2.47187 72.3535 1.14471C65.8579 -0.18246 59.1012 1.12509 53.5697 4.7797Z" fill="#219EF2"/>
</svg>
