<svg width="183" height="37" viewBox="0 0 183 37" fill="none" xmlns="http://www.w3.org/2000/svg">
<path d="M0.404375 36V28.456H2.70438V7.756H0.404375V0.211997H19.8164V7.756H15.5844V28.456H19.7244V24.224H28.8784V36H0.404375ZM31.5731 7.894V0.211997H40.9571V7.894H31.5731ZM29.3651 36V28.456H31.3891V17.968H29.3651V10.424H41.9691V28.456H43.9931V36H29.3651ZM74.8115 28.456V36H60.2755V28.456H62.2075V20.912C62.2075 19.9 61.9928 19.164 61.5635 18.704C61.1341 18.2133 60.4901 17.968 59.6315 17.968C57.7915 17.968 56.8715 18.9493 56.8715 20.912V28.456H58.8035V36H44.2675V28.456H46.2915V17.968H44.2675V10.424H56.8715V14.012C59.0795 11.1907 61.8395 9.78 65.1515 9.78C67.6968 9.78 69.5981 10.5773 70.8555 12.172C72.1435 13.7667 72.7875 15.9593 72.7875 18.75V28.456H74.8115ZM103.035 28.456H105.013V36H93.7428L89.0048 27.168H87.9008V36H75.2968V28.456H77.3208V7.756H75.2968V0.211997H87.9008V18.888H89.0048L94.7088 10.424H104.415V17.968H102.529L98.6188 22.338L103.035 28.456ZM156.303 7.756H154.003V28.456H156.303V36H138.915V28.456H141.123V12.356L133.303 36H126.495L118.445 12.586V28.456H120.653V36H105.565V28.456H107.865V7.756H105.565V0.211997H126.633L131.417 14.564L136.017 0.211997H156.303V7.756ZM170.739 36.644C166.384 36.644 162.98 35.5093 160.527 33.24C158.074 30.94 156.847 27.5973 156.847 23.212C156.847 18.8267 158.074 15.4993 160.527 13.23C162.98 10.93 166.384 9.78 170.739 9.78C175.063 9.78 178.176 10.9147 180.077 13.184C182.009 15.4227 182.975 18.2133 182.975 21.556V24.868H168.071V25.144C168.071 26.2787 168.408 27.122 169.083 27.674C169.758 28.1953 170.877 28.456 172.441 28.456C174.312 28.456 176.09 28.318 177.777 28.042C179.464 27.766 180.936 27.4133 182.193 26.984V34.344C181.12 34.9267 179.54 35.4633 177.455 35.954C175.4 36.414 173.162 36.644 170.739 36.644ZM173.407 19.808V19.256C173.407 18.2133 173.177 17.462 172.717 17.002C172.288 16.542 171.628 16.312 170.739 16.312C169.85 16.312 169.175 16.5573 168.715 17.048C168.286 17.508 168.071 18.244 168.071 19.256V19.808H173.407Z" fill="white"/>
</svg>
